<svg xmlns="http://www.w3.org/2000/svg" fill="none" viewBox="-0.5 -0.5 24 24" height="24" width="24" id="Garage--Streamline-Sharp----Material-Symbols.svg">
  <path fill="currentColor" d="M1.9406202083333335 21.083333333333336V1.9166666666666667H21.107291666666665V21.083333333333336H1.9406202083333335ZM3.3781202083333337 19.645833333333336H19.669791666666665V3.354166666666667H3.3781202083333337V19.645833333333336ZM7.8061041666666675 13.584375000000001C7.60135625 13.584375000000001 7.431060416666667 13.515039583333335 7.2953125000000005 13.376416666666668C7.159564583333334 13.2379375 7.091666666666668 13.066252083333334 7.091666666666668 12.8613125C7.091666666666668 12.656564583333333 7.161002083333333 12.48626875 7.299625000000001 12.350520833333333C7.438104166666667 12.214772916666668 7.609789583333334 12.146875000000001 7.814729166666668 12.146875000000001C8.019477083333333 12.146875000000001 8.189772916666668 12.216210416666668 8.325520833333334 12.354833333333334C8.46126875 12.4933125 8.529166666666667 12.664997916666668 8.529166666666667 12.8699375C8.529166666666667 13.074685416666668 8.45983125 13.24498125 8.321208333333333 13.380729166666667C8.182729166666668 13.516477083333335 8.011043749999999 13.584375000000001 7.8061041666666675 13.584375000000001ZM15.233187500000001 13.584375000000001C15.028439583333334 13.584375000000001 14.85814375 13.515039583333335 14.722395833333335 13.376416666666668C14.586647916666667 13.2379375 14.51875 13.066252083333334 14.51875 12.8613125C14.51875 12.656564583333333 14.588085416666667 12.48626875 14.726708333333335 12.350520833333333C14.865187500000001 12.214772916666668 15.036872916666667 12.146875000000001 15.241812500000002 12.146875000000001C15.446560416666667 12.146875000000001 15.616856250000001 12.216210416666668 15.752604166666668 12.354833333333334C15.888352083333332 12.4933125 15.956249999999999 12.664997916666668 15.956249999999999 12.8699375C15.956249999999999 13.074685416666668 15.886914583333333 13.24498125 15.748291666666667 13.380729166666667C15.6098125 13.516477083333335 15.438127083333333 13.584375000000001 15.233187500000001 13.584375000000001ZM4.815625000000001 10.877083333333333V17.96875H6.253125000000001V15.860416666666667H16.794791666666665V17.96875H18.232291666666665V10.877083333333333L16.387500000000003 5.510416666666667H6.660416666666667L4.815625000000001 10.877083333333333ZM6.660416666666667 9.870833333333334L7.61875 6.947916666666667H15.429166666666669L16.411458333333336 9.870833333333334H6.660416666666667ZM6.253125000000001 14.422916666666667V11.308333333333334H16.794791666666665V14.422916666666667H6.253125000000001Z" stroke-width="1"></path>
</svg>