<svg xmlns="http://www.w3.org/2000/svg" fill="none" viewBox="-0.5 -0.5 16 16" stroke-linecap="round" stroke-linejoin="round" stroke="currentColor" id="Globe--Streamline-Mynaui.svg" height="16" width="16"><desc>Globe Streamline Icon: https://streamlinehq.com</desc><path d="M7.5 13.9005625C12.4271875 13.9005625 15.506625 8.566749999999999 13.0430625 4.2996875C11.8996875 2.319375 9.7866875 1.0994375 7.5 1.0994375M7.5 13.9005625C2.5728125000000004 13.9005625 -0.506625 8.566749999999999 1.9569375 4.2996875C3.1003125 2.319375 5.213312500000001 1.0994375 7.5 1.0994375M7.5 13.9005625C9.4635625 13.9005625 10.30275 10.22875 10.30275 7.5C10.30275 4.7711875 9.4635625 1.0994375 7.5 1.0994375M7.5 13.9005625C5.5364375 13.9005625 4.69725 10.22875 4.69725 7.5C4.69725 4.7711875 5.5364375 1.0994375 7.5 1.0994375M1.4549999999999998 5.366499999999999H13.545M1.4549999999999998 9.6335H13.545" stroke-width="1"></path></svg>