<svg viewBox="0 0 16 16" fill="none" xmlns="http://www.w3.org/2000/svg" id="Home--Streamline-Radix.svg" height="16" width="16"><desc>Home Streamline Icon: https://streamlinehq.com</desc><path fill-rule="evenodd" clip-rule="evenodd" d="M7.551146666666667 1.2770133333333333C7.800213333333334 1.0321066666666667 8.199786666666666 1.0321066666666667 8.448853333333332 1.2770133333333333L15.648853333333333 8.359786666666666C15.9008 8.607679999999998 15.904106666666666 9.0128 15.65632 9.264853333333333C15.408426666666665 9.5168 15.0032 9.520106666666667 14.751253333333333 9.272213333333333L13.866666666666667 8.402133333333333V14.373333333333333C13.866666666666667 14.667839999999998 13.627946666666666 14.906666666666666 13.333333333333334 14.906666666666666H2.6666666666666665C2.37216 14.906666666666666 2.1333333333333333 14.667839999999998 2.1333333333333333 14.373333333333333V8.402133333333333L1.2488533333333334 9.272213333333333C0.9968 9.520106666666667 0.5915733333333333 9.5168 0.34378666666666663 9.264853333333333C0.09589333333333333 9.0128 0.0992 8.607679999999998 0.35114666666666666 8.359786666666666L7.551146666666667 1.27712ZM8 2.63104L12.8 7.352853333333333V13.84H10.666666666666666V10.106666666666666C10.666666666666666 9.81216 10.427946666666665 9.573333333333332 10.133333333333333 9.573333333333332H6.933333333333334C6.638826666666667 9.573333333333332 6.4 9.81216 6.4 10.106666666666666V13.84H3.2V7.352853333333333L8 2.63104ZM7.466666666666667 13.84H9.6V10.639999999999999H7.466666666666667V13.84Z" fill="currentColor" stroke-width="1"></path></svg>